# xmcd CD database file
# Copyright (C) 1993-1998 Ti Kan
#
# Track frame offsets:
#	183
#	16955
#	32650
#	45430
#	59385
#	74035
#	87118
#	99328
#	111230
#	126730
#	139653
#	152150
#	173575
#	189145
#	208965
#	232553
#	249945
#	268045
#	279180
#
# Disc length: 3899 seconds
#
# Revision: 2
# Processed by: cddbd v1.4PL0 Copyright (c) Steve Scherf et al.
# Submitted via: Gronk 1.4
#
DISCID=fe0f3913
DTITLE=Fenton Robinson   - "Mellow Fellow" - Charly Blues Mast
DTITLE=erworks Vol.41
DYEAR=1900
DGENRE=blues
TTITLE0=Somebody Loan Me A Dime
TTITLE1=The Sky Is Crying
TTITLE2=Smokestack Lightning
TTITLE3=Little Red Rooster
TTITLE4=Moanin' for My Baby
TTITLE5=Don't Start Me to Talkin'
TTITLE6=Stormy Monday
TTITLE7=Leave you in the Arms (of Your Other Man)
TTITLE8=Let Me Come on Home
TTITLE9=The Getaway
TTITLE10=Sideman
TTITLE11=Give You Some Air
TTITLE12=I'm Not Through Loving You
TTITLE13=Mellow Fellow
TTITLE14=She's A Wiggler
TTITLE15=Little Turch
TTITLE16=I Wanna Ooh!
TTITLE17=Laughing and Crying Blues
TTITLE18=I Fell in Love One Time
EXTD=Submitted By WinSkol\n\nBlues
EXTT0=
EXTT1=
EXTT2=
EXTT3=
EXTT4=
EXTT5=
EXTT6=
EXTT7=
EXTT8=
EXTT9=
EXTT10=
EXTT11=
EXTT12=
EXTT13=
EXTT14=
EXTT15=
EXTT16=
EXTT17=
EXTT18=
PLAYORDER=
